<?xml version="1.0" encoding="iso-8859-1"?>
<!-- Uploaded to: SVG Repo, www.svgrepo.com, Generator: SVG Repo Mixer Tools -->
<svg version="1.1" id="Layer_1" xmlns="http://www.w3.org/2000/svg" xmlns:xlink="http://www.w3.org/1999/xlink" 
	 viewBox="0 0 512 512" xml:space="preserve">
<path style="fill:#FFFFFF;" d="M200.295,508.008C94.765,508,9.22,422.455,9.22,316.925S94.773,125.85,200.303,125.858
	c105.522,0.008,191.067,85.553,191.067,191.075C391.258,422.415,305.777,507.896,200.295,508.008z"/>
<g>
	<path style="fill:#AAC1CE;" d="M200.303,129.85c103.322,0,187.075,83.753,187.075,187.075S303.617,504,200.303,504
		S13.236,420.247,13.228,316.933C13.34,213.659,97.03,129.97,200.303,129.85 M200.303,121.85
		c-107.738,0-195.075,87.337-195.075,195.075S92.565,512,200.303,512s195.067-87.329,195.075-195.067
		c0.008-107.738-87.329-195.075-195.067-195.083C200.303,121.85,200.303,121.85,200.303,121.85z"/>
	<path style="fill:#AAC1CE;" d="M200.303,180.411c75.401,0,136.522,61.121,136.522,136.522s-61.121,136.522-136.522,136.522
		s-136.53-61.121-136.53-136.522C63.861,241.572,124.934,180.491,200.303,180.411 M200.303,172.411
		c-79.825-0.016-144.538,64.681-144.554,144.498s64.681,144.53,144.498,144.546s144.53-64.681,144.546-144.498
		c0-0.008,0-0.016,0-0.024C344.793,237.124,280.104,172.427,200.303,172.411z"/>
</g>
<polygon style="fill:#CFDCE5;" points="141.446,365.326 243.856,338.525 506.772,75.609 431.163,0 168.247,262.916 "/>
<g>
	<polyline style="fill:#415E72;" points="156.134,309.165 141.446,365.326 197.607,350.629 	"/>
	
		<rect x="421.245" y="26.348" transform="matrix(0.7071 -0.7071 0.7071 0.7071 68.6185 325.2765)" style="fill:#415E72;" width="11.416" height="106.921"/>
</g>
<rect x="157.378" y="129.514" transform="matrix(0.7071 -0.7071 0.7071 0.7071 -34.5341 282.575)" style="fill:#25B6D2;" width="332.906" height="106.921"/>
<rect x="410.759" y="8.466" transform="matrix(0.7071 -0.7071 0.7071 0.7071 86.5045 332.6924)" style="fill:#E04F5F;" width="68.176" height="106.921"/>
<g style="opacity:0.25;">
	<polygon style="fill:#FFFFFF;" points="141.446,365.326 470.387,39.217 431.163,0.008 168.295,262.868 	"/>
</g>
</svg>